<svg width="35" height="35" viewBox="0 0 35 35" fill="none" xmlns="http://www.w3.org/2000/svg">
<circle cx="17.5" cy="17.5" r="17.5" fill="#3AA828"/>
<path d="M18.0498 20.3877H16.582L16.4678 11.2031H18.1729L18.0498 20.3877ZM16.4062 23.1826C16.4062 22.9189 16.4854 22.6992 16.6436 22.5234C16.8076 22.3418 17.0479 22.251 17.3643 22.251C17.6807 22.251 17.9209 22.3418 18.085 22.5234C18.249 22.6992 18.3311 22.9189 18.3311 23.1826C18.3311 23.4463 18.249 23.666 18.085 23.8418C17.9209 24.0117 17.6807 24.0967 17.3643 24.0967C17.0479 24.0967 16.8076 24.0117 16.6436 23.8418C16.4854 23.666 16.4062 23.4463 16.4062 23.1826Z" fill="white"/>
</svg>
